<?xml version="1.0" encoding="UTF-8"?>
<svg xmlns="http://www.w3.org/2000/svg" width="1400" height="900" viewBox="0 0 1400 900">
  <defs>
    <linearGradient id="grad-a" x1="0" x2="1">
      <stop offset="0%" stop-color="#2563EB"/>
      <stop offset="100%" stop-color="#7C3AED"/>
    </linearGradient>
    <linearGradient id="grad-b" x1="0" x2="1">
      <stop offset="0%" stop-color="#EF4444"/>
      <stop offset="100%" stop-color="#F59E0B"/>
    </linearGradient>
    <filter id="shadow" x="-20%" y="-20%" width="140%" height="140%">
      <feDropShadow dx="0" dy="8" stdDeviation="12" flood-color="#000" flood-opacity="0.18"/>
    </filter>
    <style>
      :root {
        --bg: #ffffff;
        --muted: #475569;
        --blue: #2563EB;
        --red: #EF4444;
        --yellow: #F59E0B;
        --purple: #7C3AED;
        --card: #fbfdff;
        --stroke: #0f172a;
      }

      svg { background: var(--bg); }
      .title { font: 700 20px/1.1 'Segoe UI', Roboto, sans-serif; fill: var(--stroke); }
      .actor { font: 600 14px 'Segoe UI', Roboto, sans-serif; fill: var(--stroke); }
      .actor-box { fill: var(--card); stroke: var(--blue); stroke-width: 2; rx:10; filter: url(#shadow); }
      .usecase { fill: url(#grad-a); stroke: var(--stroke); stroke-width: 2; }
      .usecase-text { font: 600 13px 'Segoe UI', Roboto, sans-serif; fill: #ffffff; text-anchor: middle; }
      .line { stroke: #334155; stroke-width: 1.8; stroke-linecap: round; }
      .note { font: 12px 'Segoe UI', Roboto, sans-serif; fill: var(--muted); }
      .legend { fill: #fff7ed; stroke: var(--yellow); }

      /* Accent colors applied randomly across right-side usecases */
      .uc-blue { fill: url(#grad-a); }
      .uc-red { fill: url(#grad-b); }
      .uc-yellow { fill: #FDE68A; stroke: #B45309; }
      .uc-purple { fill: #E9D5FF; stroke: #5B21B6; }

      /* dark-mode */
      @media (prefers-color-scheme: dark) {
        :root { --bg: #071023; --muted: #cbd5e1; --card: #031022; --stroke: #e6eef8; }
        svg { background: #071023; }
        .actor-box { filter: none; stroke: var(--blue); }
        .legend { fill: #052034; stroke: #f59e0b; }
        .usecase-text { fill: var(--stroke); }
      }
    </style>
  </defs>

  <!-- Title -->
  <text x="700" y="40" class="title" text-anchor="middle">UML Use Case diagram — Informační systém (barevné)</text>

  <!-- Actors (left) -->
  <g id="actors-left">
    <rect x="60" y="110" width="180" height="56" class="actor-box"/>
    <text x="150" y="145" class="actor" text-anchor="middle">Host (Guest)</text>

    <rect x="60" y="210" width="220" height="56" class="actor-box"/>
    <text x="170" y="245" class="actor" text-anchor="middle">Registrovaný uživatel (User)</text>

    <rect x="60" y="310" width="200" height="56" class="actor-box"/>
    <text x="160" y="345" class="actor" text-anchor="middle">Manažer (Manager)</text>

    <rect x="60" y="410" width="240" height="56" class="actor-box"/>
    <text x="180" y="445" class="actor" text-anchor="middle">Administrátor (Admin)</text>
  </g>

  <!-- Use cases (center) -->
  <g id="usecases-center">
    <ellipse cx="470" cy="110" rx="220" ry="34" class="usecase uc-blue"/>
    <text x="470" y="116" class="usecase-text">Prohlížet veřejné informace</text>

    <ellipse cx="470" cy="190" rx="190" ry="32" class="usecase uc-red"/>
    <text x="470" y="196" class="usecase-text">Registrovat se</text>

    <ellipse cx="470" cy="270" rx="160" ry="32" class="usecase uc-yellow"/>
    <text x="470" y="276" class="usecase-text" fill="#1f2937">Přihlásit se</text>

    <ellipse cx="470" cy="350" rx="190" ry="32" class="usecase uc-purple"/>
    <text x="470" y="356" class="usecase-text">Spravovat profil</text>

    <ellipse cx="470" cy="430" rx="210" ry="32" class="usecase uc-blue"/>
    <text x="470" y="436" class="usecase-text">Vytvořit požadavek</text>

    <ellipse cx="470" cy="510" rx="210" ry="32" class="usecase uc-red"/>
    <text x="470" y="516" class="usecase-text">Prohlížet stav požadavku</text>

    <ellipse cx="470" cy="590" rx="170" ry="32" class="usecase uc-yellow"/>
    <text x="470" y="596" class="usecase-text" fill="#1f2937">Prohlížet zprávy</text>
  </g>

  <!-- Use cases (right) -->
  <g id="usecases-right">
    <ellipse cx="1000" cy="230" rx="240" ry="40" class="usecase uc-purple"/>
    <text x="1000" y="236" class="usecase-text">Schválit / odmítnout požadavek</text>

    <ellipse cx="1000" cy="330" rx="190" ry="34" class="usecase uc-blue"/>
    <text x="1000" y="336" class="usecase-text">Spravovat uživatele</text>

    <ellipse cx="1000" cy="410" rx="190" ry="34" class="usecase uc-red"/>
    <text x="1000" y="416" class="usecase-text">Generovat zprávy</text>

    <ellipse cx="1000" cy="490" rx="200" ry="34" class="usecase uc-yellow"/>
    <text x="1000" y="496" class="usecase-text" fill="#1f2937">Konfigurovat systém</text>

    <ellipse cx="1000" cy="570" rx="170" ry="34" class="usecase uc-purple"/>
    <text x="1000" y="576" class="usecase-text">Zálohovat data</text>

    <ellipse cx="1000" cy="650" rx="200" ry="34" class="usecase uc-blue"/>
    <text x="1000" y="656" class="usecase-text">Odeslat notifikaci</text>
  </g>

  <!-- Connections (stylish curved lines) -->
  <path d="M250,140 C320,120 380,120 430,116" class="line" fill="none"/>
  <path d="M250,250 C360,220 420,200 430,196" class="line" fill="none"/>
  <path d="M250,360 C360,320 420,300 430,356" class="line" fill="none"/>
  <path d="M250,460 C360,420 500,420 700,420" class="line" fill="none"/>

  <!-- include relations (dashed) -->
  <path d="M680,430 C760,500 860,600 740,680" class="line" stroke-dasharray="8,6" fill="none"/>
  <path d="M1000,230 C900,320 700,520 430,516" class="line" stroke-dasharray="8,6" fill="none"/>

  <!-- Legend / notes -->
  <rect x="60" y="760" width="1260" height="100" rx="12" class="legend" />
  <text x="90" y="790" class="note">Poznámky: Barevné skupiny: modrá, červená, žlutá, fialová náhodně rozdělené mezi případy užití. Čárkované čáry značí relation "includes".</text>

  <!-- Footer -->
  <text x="700" y="835" text-anchor="middle" class="note">Autor: DKalousek — pslib-cz/2025-p1a-inf-nis-DKalousek</text>
</svg>
